<svg width="225" height="114" viewBox="0 0 225 114" fill="none" xmlns="http://www.w3.org/2000/svg">
<path d="M129.533 1.74398C133.56 -0.581325 138.523 -0.581328 142.55 1.74398L218.488 45.5858C222.515 47.9112 224.996 52.209 224.996 56.8598C224.996 61.5107 222.515 65.8085 218.488 68.1339L142.55 111.976C138.523 114.301 133.56 114.301 129.533 111.976C125.505 109.65 123.024 105.352 123.024 100.702V75.2557L123.024 35.1193L123.024 13.018C123.024 8.36722 125.505 4.06939 129.533 1.74398Z" fill="white"/>
<path d="M114.227 56.8598C114.227 88.2627 88.7702 113.72 57.3673 113.72C25.9645 113.72 0.507507 88.2627 0.507507 56.8598C0.507507 25.457 25.9645 0 57.3673 0C88.7702 0 114.227 25.457 114.227 56.8598Z" fill="white"/>
</svg>
