<svg width="241" height="240" viewBox="0 0 241 240" fill="none" xmlns="http://www.w3.org/2000/svg">
<path d="M137.025 64.744C141.053 62.4187 146.015 62.4187 150.043 64.744L225.98 108.586C230.008 110.911 232.489 115.209 232.489 119.86C232.489 124.511 230.008 128.808 225.98 131.134L150.043 174.976C146.015 177.301 141.053 177.301 137.025 174.976C132.997 172.65 130.516 168.352 130.516 163.702V138.256L130.516 98.1193L130.516 76.018C130.516 71.3672 132.997 67.0694 137.025 64.744Z" fill="black"/>
<path d="M121.72 119.86C121.72 151.263 96.2627 176.72 64.8598 176.72C33.457 176.72 8 151.263 8 119.86C8 88.457 33.457 63 64.8598 63C96.2627 63 121.72 88.457 121.72 119.86Z" fill="black"/>
</svg>
